<svg xmlns="http://www.w3.org/2000/svg" width="163.685" height="196.43" viewBox="0 0 163.685 196.43"><path d="M163.059,145.695l-1.482,1.545,1.537,1.41,1.111-1.258,1.2,1.111,1.4-1.568-1.439-1.384-1.2,1.238Zm29.133,8.706c-.222.507-.437.837-1.39.837-.757,0-1.376,0-1.928-.043a4.9,4.9,0,0,0,1.367-2.829c0-1.232-1.275-2.061-3.166-2.061a7.356,7.356,0,0,0-3.045.705l-.072.032-.371,1.845.029.052a15.67,15.67,0,0,0,1.594,2.233c-.633.043-1.347.066-2.176.066H166.722c-.863,0-1.088-.19-1.088-.979l-.035-5-2.032.342.017.679c-2.3.924-3.583,2.3-3.583,3.885,0,1.661,1.41,2.737,3.592,2.737h.063l.509-.541a2.744,2.744,0,0,0,2.538,1.013h17.524a6.478,6.478,0,0,0,2.8-.653,6.015,6.015,0,0,0,2.786.653h1.053a2.832,2.832,0,0,0,1.649-.507,13.117,13.117,0,0,0,4.046.653h.06l1.151-1.151v-.043A10.3,10.3,0,0,0,198,154.3c0-1.92-1.056-3.206-2.628-3.206-.8,0-1.951.44-2.878,2.547Zm-30.448-.5c0-.607.685-1.206,1.888-1.663l.049,2.015a6,6,0,0,0,.032.624c-1.307-.081-1.968-.412-1.968-.987m25.3.8a9.525,9.525,0,0,1-1.551-2.092,5.607,5.607,0,0,1,1.471-.213,5.223,5.223,0,0,1,1.514.239,4.458,4.458,0,0,1-1.439,2.066m7.008-.377c.475-1.076.9-1.2,1.174-1.2.826,0,1,.909,1,1.669a5.965,5.965,0,0,1-.04.688,10.952,10.952,0,0,1-2.466-.351ZM205.669,159l1.537,1.4,1.376-1.586-1.439-1.387Zm-3.01-1.638h2.3a6.859,6.859,0,0,0,3.223-.935,16.116,16.116,0,0,1,2.409-1l.075-.023.507-1.994-.124-.046a11.634,11.634,0,0,1-2.751-1.586,4.521,4.521,0,0,0-2.59-1.174,3.091,3.091,0,0,0-1.727.6l-.052.032-.443,1.8.256-.083a4.683,4.683,0,0,1,1.574-.265,3.522,3.522,0,0,1,2.17.964c.242.173.507.365.809.576l-.262.118a7.333,7.333,0,0,1-3.082.886h-2.3c-.863,0-1.085-.21-1.085-.979v-8.309l-2.032.342.075,7.972c.04,2.242.892,3.114,3.042,3.114m-66.08,8.6-.881-.187-.043.127a2.878,2.878,0,0,0-.135.884,1.177,1.177,0,0,0,1.189,1.3,1.085,1.085,0,0,0,1.048-.685,1.016,1.016,0,0,0,.789.34c.708,0,1.134-.524,1.134-1.4a4.536,4.536,0,0,0-.247-1.344l-.058-.158-.932.481.055.17a4.909,4.909,0,0,1,.265,1.079.622.622,0,0,1-.288.06c-.337,0-.483-.1-.576-1.137v-.187l-.817.253v.115a8.487,8.487,0,0,1-.046,1.315.467.467,0,0,1-.187.04c-.19,0-.36-.037-.36-.486a1.806,1.806,0,0,1,.049-.42Zm30.647,8.87a2.687,2.687,0,0,0,2.99-2.659c0-1.4-1.108-3.281-3.12-5.31l-.112-.115-1.373,1.591.109.1c.141.127.271.25.4.38a4.947,4.947,0,0,0-1.776,3.4c0,1.617,1.114,2.622,2.9,2.622m0-4.841c.889,1.065,1.082,1.635,1.082,1.928,0,.547-.44.886-1.151.886s-1.091-.34-1.091-.886a3.025,3.025,0,0,1,1.151-1.928M120.785,163l-1.482,1.548,1.534,1.407,1.111-1.255,1.232,1.094,1.4-1.566-1.439-1.39-1.2,1.24Zm46.113,2.015,1.2,1.111,1.4-1.568-1.439-1.387-1.2,1.24-1.131-1.094-1.482,1.545,1.534,1.41Zm32.834-1.3.253,1.3.155-.043a30.326,30.326,0,0,1,3.045-.671l.115-.02.135-1.557-.187.026c-.4.058-.783.132-1.131.219a.783.783,0,0,1-.593-.092.265.265,0,0,1-.089-.216c0-.178.178-.36.524-.36a3.615,3.615,0,0,1,.766.1l.184.043v-1.35l-.1-.035a3.012,3.012,0,0,0-.979-.173,1.639,1.639,0,0,0-1.75,1.589,1.5,1.5,0,0,0,.322.967c-.181.058-.36.13-.538.2Zm9.284,11.178,1.92-.216V163.244l-2.032.34Zm-1.632-3.428v-8.219l-2.046.34v7.86c0,.823-.273,1.091-1.122,1.091h-.4a16.032,16.032,0,0,0-.178-2.2l-.789-5.4-2.015.466,1.151,7.137h-2.794l-.288,2.135h5.468c1.98,0,3.025-1.114,3.025-3.226m-69.729,5.468-1.108-1.091-1.485,1.568L136.6,178.8l1.111-1.258,1.2,1.091,1.376-1.566-1.439-1.407Zm13.756-2.443h.052a3.9,3.9,0,0,0,1.321.19,2.949,2.949,0,0,0,2.524-.961l.472.757.055.017a4.672,4.672,0,0,0,1.3.187,2.772,2.772,0,0,0,3.062-2.97,18.277,18.277,0,0,0-.6-3.655l-.04-.158-1.943.639.035.138a16.844,16.844,0,0,1,.653,3.108c0,.449-.216.763-1.272.763a6.18,6.18,0,0,1-1.252-.13l.371-2.78-2.015.345-.25,1.876c-.052.435-.268.688-1.214.688a6.923,6.923,0,0,1-1.238-.115l.319-2.32-2.015.342-.2,1.4c-.055.446-.288.688-1.4.688-.555,0-.74-.173-1.025-.958l-.492-1.367a2.4,2.4,0,0,0-2.216-1.77c-1.658,0-2.878,2.038-2.984,3.9a2.973,2.973,0,0,1-.947.193,11.03,11.03,0,0,1-1.851-.135l.446-3.212-2.015.345-.325,2.3c-.055.446-.391.688-2.015.688H124.477c-.863,0-1.091-.193-1.091-.981l-.035-5-2.032.342.02.682c-2.3.921-3.586,2.3-3.586,3.885,0,1.661,1.413,2.734,3.592,2.734h.063l.509-.541a2.744,2.744,0,0,0,2.538,1.013h10.266c1.911,0,2.947-.288,3.474-.981l.489.777.052.017a5.879,5.879,0,0,0,1.753.187,2.944,2.944,0,0,0,1.853-.708,7.688,7.688,0,0,0,3.6.817h.124l.2-.918a2.17,2.17,0,0,0,1.879.8,3.371,3.371,0,0,0,2.829-.95Zm-31.945-3.275c0-.6.682-1.206,1.888-1.661l.052,2.015a5.349,5.349,0,0,0,.032.627c-1.309-.081-1.971-.414-1.971-.99m23.68,1.042c.075-.863.518-1.784,1.137-1.784.371,0,.676.342.935,1.05l.483,1.278a6.7,6.7,0,0,1-2.556-.544m45.359,1.456.489.777.052.017a5.862,5.862,0,0,0,1.727.187h.032a2.84,2.84,0,0,0,1.692-.509,13.117,13.117,0,0,0,4.061.662h.06l1.151-1.151v-.043A10.526,10.526,0,0,0,198,171.59c0-1.917-1.056-3.206-2.628-3.206-.8,0-1.951.44-2.878,2.547l-.328.763c-.222.507-.437.837-1.387.84a10.871,10.871,0,0,1-1.836-.135l.443-3.212-2.015.345-.322,2.3c-.058.446-.394.688-2.015.688h-8.067a5.253,5.253,0,0,1-1.473-.2,15.253,15.253,0,0,0-1.379-3.672l-.083-.164L172.36,169.8l.052.109a9.807,9.807,0,0,1,1.3,3.609c0,1.318-1.353,2.357-3.531,2.711l-.193.032.889,1.992.112-.017a5.22,5.22,0,0,0,4.513-3.741,5.467,5.467,0,0,0,1.473.176h8.084c1.911,0,2.95-.288,3.474-.981m5.526-2.075c.475-1.076.9-1.2,1.174-1.2.826,0,1,.909,1,1.672a6.085,6.085,0,0,1-.04.688,11.135,11.135,0,0,1-2.466-.354Zm-3.407,5.448-1.439-1.407-1.2,1.255-1.114-1.091-1.482,1.568,1.534,1.407,1.114-1.258,1.2,1.091Zm-30.523,17.777,1.534,1.407,1.376-1.589-1.439-1.387Zm39.062-11.61-1.468,1.537,1.534,1.41,1.111-1.258,1.2,1.111,1.4-1.568-1.439-1.384-1.2,1.238Zm9.828,5.854c0,.823-.288,1.088-1.125,1.088h-.509c-.863,0-1.088-.21-1.088-.981v-8.309l-2.015.34.075,7.969a6.694,6.694,0,0,0,.058.8,5.335,5.335,0,0,1-1.381.178,11.094,11.094,0,0,1-1.853-.135l.446-3.209-2.015.342-.325,2.3c-.052.446-.391.688-2.015.688a11.661,11.661,0,0,1-1.511-.1,4.027,4.027,0,0,0,.078-.8c0-1.957-2.392-3.235-4-3.874.892-.561,1.819-1.073,2.878-1.658.423-.233.863-.478,1.338-.745l.078-.04v-2.639l-.23.15c-2.59,1.675-4.029,2.607-5.615,3.828l-.046.037-.357,2.2.109.046c1.079.435,3.949,1.592,3.949,2.7,0,.558-.342.907-2.035.907h-2.55a7.588,7.588,0,0,1-1.508-.129l.449-3.215-2.015.342-.328,2.3c-.052.435-.268.688-1.214.688h-.823c-.161-2.59-1.266-4.2-2.907-4.2-1.453,0-2.878,1.741-2.878,3.517,0,1.491,1.3,2.481,3.569,2.743-.6.829-1.868,1.379-3.767,1.64l-.2.026.912,1.994h.109c3.186-.429,4.412-2.15,4.875-3.566h1.111a3.172,3.172,0,0,0,2.651-.967l.475.763.055.017a5.154,5.154,0,0,0,1.39.184h2.345a6.065,6.065,0,0,0,2.771-.527,6.933,6.933,0,0,0,2.852.527c1.914,0,2.95-.288,3.474-.981l.489.777.055.017a5.853,5.853,0,0,0,1.753.187,4.705,4.705,0,0,0,2.219-.576,3.268,3.268,0,0,0,2.147.576h.656c1.994,0,3-1.085,3-3.223v-8.191l-2.015.34Zm-29.2.2c0-.659.44-1.286.907-1.286.751,0,1.249,1.125,1.364,2.242-1.073-.06-2.271-.288-2.271-.955m-17.06-2.558a4.551,4.551,0,0,0-2.59-1.174,3.05,3.05,0,0,0-1.727.6l-.052.035-.443,1.793.256-.083a4.7,4.7,0,0,1,1.574-.265,3.522,3.522,0,0,1,2.167.964c.242.176.509.368.814.576l-.265.115a7.282,7.282,0,0,1-3.082.889h-2.015a10.758,10.758,0,0,1-1.851-.135l.449-3.212-2.015.342-.322,2.3c-.055.446-.394.688-2.015.688h-.273c-.863,0-1.085-.21-1.085-.981v-8.3l-2.015.34.072,7.972h0c.04,2.239.892,3.111,3.042,3.111h.273c1.914,0,2.95-.288,3.477-.981l.486.777.052.017a5.911,5.911,0,0,0,1.756.187h2.015a6.876,6.876,0,0,0,3.223-.932,15.982,15.982,0,0,1,2.409-1l.081-.026.509-1.992-.127-.049a11.577,11.577,0,0,1-2.751-1.583m-8.2,7.831-1.111-1.094-1.482,1.568,1.534,1.407,1.111-1.258,1.2,1.091,1.379-1.563-1.439-1.407Zm20.183-5.468c0,.823-.273,1.088-1.122,1.088h-1.062c-.161-2.59-1.266-4.2-2.907-4.2-1.453,0-2.878,1.741-2.878,3.517,0,1.491,1.3,2.481,3.569,2.743-.6.829-1.871,1.379-3.767,1.64l-.2.026.912,1.994h.109c3.186-.429,4.415-2.15,4.875-3.566h1.494c1.994,0,3.007-1.085,3.007-3.223v-8.216l-2.029.34Zm-6.254.2c0-.659.44-1.286.9-1.286.754,0,1.252,1.125,1.367,2.242-1.073-.06-2.271-.288-2.271-.955m17.055-4.651,1.534,1.407,1.379-1.568-1.439-1.407ZM146.617,125.2c.273-.075.544-.158.817-.236.486-.141.976-.288,1.456-.435.334-.1.665-.216,1-.325.409-.135.82-.273,1.223-.417s.731-.265,1.091-.4.717-.288,1.071-.414.783-.311,1.168-.472l.9-.394c.426-.184.863-.371,1.278-.576.167-.078.331-.161.5-.239a63.133,63.133,0,0,0,5.851-3.166q2.527-1.543,4.892-3.3c.771-.576,1.525-1.166,2.271-1.776s1.5-1.261,2.233-1.914q2.153-1.934,4.13-4.064t3.761-4.432q1.8-2.322,3.379-4.812a63.334,63.334,0,0,0,8.248-19.639q.659-2.849,1.059-5.793H175.333a46.139,46.139,0,0,1-7.509,17.811,46.243,46.243,0,0,1-35.114,19.743c-.958.06-1.922.1-2.9.1s-1.94-.037-2.9-.1A46.263,46.263,0,0,1,88.149,83.984h-6.36a52.249,52.249,0,0,0,33.539,29.824,51.573,51.573,0,0,0,5.793,1.309,52.6,52.6,0,0,0,5.8.662c.958.052,1.925.081,2.9.081s1.937-.029,2.9-.081a51.921,51.921,0,0,0,31.438-12.853,53.35,53.35,0,0,0,4.144-4.043A52.22,52.22,0,0,0,179.9,78.2h6.021a57.878,57.878,0,0,1-9.785,20.321,56.369,56.369,0,0,1-3.741,4.464,57.912,57.912,0,0,1-4.13,4.078c-.524.463-1.062.907-1.6,1.35-.389.322-.786.639-1.177.953-.576.455-1.168.912-1.77,1.344-.555.4-1.128.783-1.7,1.166-1.068.717-2.153,1.413-3.272,2.058-.561.325-1.134.645-1.709.95h0c-.527.288-1.062.553-1.6.817l-.576.288c-.36.173-.719.345-1.082.509l-.676.288c-.337.153-.676.288-1.019.443l-.708.288c-.34.138-.682.271-1.025.4-.239.092-.475.181-.714.268-.354.127-.711.253-1.071.374l-.682.233c-.4.129-.8.253-1.2.374-.193.06-.386.121-.576.176-.6.176-1.2.342-1.8.5a57.5,57.5,0,0,1-5.793,1.177v5.851q2.944-.4,5.793-1.062c.78-.181,1.554-.38,2.322-.59m-25.5-4.2a57.846,57.846,0,0,1-47.431-42.8H85.8a45.842,45.842,0,0,1-1.5-5.793H66.68q.4,2.941,1.062,5.793a63.821,63.821,0,0,0,47.586,47.586q2.849.659,5.793,1.062ZM108.332,55.035a22.869,22.869,0,0,1,2.841-5.074c.178-.245.368-.483.558-.719a23.242,23.242,0,0,1,3.439-3.482l.158-.124a23.312,23.312,0,0,1,2.9-1.983,22.583,22.583,0,0,1,2.015-1.03c.288-.132.593-.262.9-.386a22.865,22.865,0,0,1,5.451-1.459l.342-.046a22.868,22.868,0,0,1,5.793,0l.345.046a22.805,22.805,0,0,1,5.448,1.459c.3.124.6.253.9.386a23.153,23.153,0,0,1,4.892,3.013l.161.124a23.381,23.381,0,0,1,3.439,3.477c.19.236.377.475.558.719a22.983,22.983,0,0,1,2.841,5.074h18.131a39.928,39.928,0,0,0-1.727-5.793c-.2-.512-.394-1.019-.613-1.52a39.964,39.964,0,0,0-2.812-5.382,40.734,40.734,0,0,0-12.116-12.459,40.057,40.057,0,0,0-5.258-2.935q-1.272-.6-2.59-1.1a40.29,40.29,0,0,0-5.793-1.727,40.76,40.76,0,0,0-5.793-.829c-.955-.066-1.922-.115-2.9-.115s-1.94.049-2.9.115a40.1,40.1,0,0,0-11.587,2.561q-1.321.5-2.59,1.1a40.019,40.019,0,0,0-5.255,2.935A40.826,40.826,0,0,0,95.39,42.34c-.224.366-.443.737-.659,1.108a40.1,40.1,0,0,0-2.153,4.274c-.216.5-.417,1.007-.613,1.52a39.919,39.919,0,0,0-1.727,5.793,40.351,40.351,0,0,0-.829,5.793c-.066.958-.115,1.92-.115,2.9s.049,1.94.115,2.9a40.455,40.455,0,0,0,37.511,37.54c.958.069,1.922.115,2.9.115s1.94-.046,2.9-.115a40.76,40.76,0,0,0,5.793-.829,40.292,40.292,0,0,0,5.793-1.727c.512-.2,1.019-.4,1.52-.613A40.674,40.674,0,0,0,166.6,80.806q.593-1.272,1.1-2.59a40.143,40.143,0,0,0,1.727-5.793H151.291c-.124.288-.25.6-.386.9a23.244,23.244,0,0,1-3.013,4.892H161.4a34.174,34.174,0,0,1-1.945,3.658,35.179,35.179,0,0,1-3.471,4.714q-.978,1.114-2.043,2.144l-8.234-8.145a23.216,23.216,0,0,1-4.737,3.454l8.458,8.378c-.8.544-1.62,1.059-2.464,1.537s-1.758.955-2.674,1.373c-.964.44-1.945.84-2.953,1.2-.93.325-1.876.622-2.841.863V85.207l-.2.078a22.978,22.978,0,0,1-5.595,1.439V98.365c-.955.081-1.92.132-2.9.132s-1.94-.052-2.9-.132V86.709a23.023,23.023,0,0,1-11.587-4.892,23.51,23.51,0,0,1-3.6-3.6,23.093,23.093,0,0,1-3.4-5.793H96.15a34.682,34.682,0,0,1-.967-5.793h11.644a23.493,23.493,0,0,1-.187-2.9c0-.616.032-1.226.078-1.83.029-.36.066-.714.109-1.065H95.183a34.534,34.534,0,0,1,.967-5.793ZM99.58,46.568a34.616,34.616,0,0,1,2.015-3.111c.429-.6.863-1.177,1.33-1.741a34.644,34.644,0,0,1,12.41-9.581q.892-.409,1.819-.771a34.28,34.28,0,0,1,3.974-1.3,35.231,35.231,0,0,1,5.793-.976c.958-.078,1.92-.127,2.9-.127s1.94.049,2.9.127a35.18,35.18,0,0,1,5.793.967,34.33,34.33,0,0,1,3.977,1.3c.613.242,1.22.5,1.816.771a34.481,34.481,0,0,1,3.661,1.948,35.488,35.488,0,0,1,8.752,7.632,34.565,34.565,0,0,1,3.33,4.861q.742,1.3,1.37,2.674h-6.519a28.4,28.4,0,0,0-2.3-3.41,29.067,29.067,0,0,0-8.286-7.195c-.193-.112-.383-.224-.576-.331a28.685,28.685,0,0,0-5.215-2.225c-.193-.06-.389-.112-.576-.17a28.808,28.808,0,0,0-5.209-1.013c-.953-.095-1.917-.147-2.9-.147s-1.945.052-2.9.147a28.807,28.807,0,0,0-5.209,1.013c-.2.058-.389.109-.576.17a28.779,28.779,0,0,0-5.215,2.225c-.193.106-.386.219-.576.331a28.981,28.981,0,0,0-4.268,3.016c-.668.576-1.312,1.151-1.925,1.79a28.351,28.351,0,0,0-2.092,2.383,28.715,28.715,0,0,0-2.3,3.41H98.216q.627-1.373,1.37-2.674m5.146,31.646a29.044,29.044,0,0,0,10.6,10.594,28.687,28.687,0,0,0,5.793,2.558v6.026a34.462,34.462,0,0,1-5.793-2.066A34.883,34.883,0,0,1,98.216,78.208ZM85.789,49.241a45.566,45.566,0,0,1,2.343-5.785l.049-.092a46.275,46.275,0,0,1,2.984-5.209A47.2,47.2,0,0,1,94.7,33.5a46.643,46.643,0,0,1,4.029-4.153l-8.2-8.2Q92.671,19.178,95,17.406A57.532,57.532,0,0,1,121.11,6.435q2.858-.426,5.793-.576c.958-.046,1.925-.072,2.9-.072s1.937.026,2.9.072q2.941.147,5.793.576A57.49,57.49,0,0,1,159.729,14.1l-4.245,4.248a52.184,52.184,0,0,0-22.773-6.68c-.958-.052-1.922-.083-2.9-.083s-1.94.032-2.9.083a52.6,52.6,0,0,0-5.793.65,52.016,52.016,0,0,0-16.98,6.029,52.635,52.635,0,0,0-4.982,3.209l4.159,4.156a46,46,0,0,1,17.811-7.509,46.786,46.786,0,0,1,5.787-.728c.958-.06,1.922-.1,2.9-.1s1.937.037,2.9.1a46.718,46.718,0,0,1,5.793.728,46,46,0,0,1,17.811,7.508l8.3-8.3a57.078,57.078,0,0,1,4.464,3.741l-8.2,8.185a47.544,47.544,0,0,1,7.575,8.809,46.047,46.047,0,0,1,5.376,11.094,45.578,45.578,0,0,1,1.494,5.793h17.613q-.4-2.944-1.053-5.793a63.383,63.383,0,0,0-7.647-18.681q-1.543-2.521-3.3-4.892t-3.689-4.5q-1.94-2.156-4.061-4.13t-4.435-3.761q-2.322-1.8-4.812-3.379a63.343,63.343,0,0,0-19.642-8.245Q141.446.99,138.5.593,135.644.2,132.708.069c-.961-.043-1.925-.069-2.9-.069s-1.937.026-2.892.069q-2.933.13-5.793.524-2.941.4-5.793,1.062A63.343,63.343,0,0,0,95.687,9.9c-1.655,1.053-3.261,2.184-4.812,3.379s-3.013,2.443-4.432,3.761-2.771,2.694-4.061,4.13-2.53,2.944-3.689,4.5-2.276,3.206-3.3,4.892a63.3,63.3,0,0,0-6,12.89q-.953,2.841-1.643,5.793Q67.08,52.1,66.68,55.043H84.293a45.591,45.591,0,0,1,1.5-5.793m91-19.423a57.642,57.642,0,0,1,9.132,19.414H179.9a51.665,51.665,0,0,0-4.15-10.191,50.6,50.6,0,0,0-3.123-5.068,52.043,52.043,0,0,0-3.6-4.6l4.113-4.1q1.934,2.181,3.646,4.544M81.763,43.457a52.258,52.258,0,0,0-2.04,5.785H73.708a57.774,57.774,0,0,1,5.908-14.453,58.426,58.426,0,0,1,3.22-4.97q1.709-2.36,3.649-4.544L90.6,29.386a51.536,51.536,0,0,0-3.6,4.6,52.246,52.246,0,0,0-3.123,5.068c-.768,1.439-1.476,2.892-2.112,4.4" transform="translate(-47.49)" fill="#0d2c71"/><path d="M4.659,322.316c2.622,0,4.029-1.364,4.029-3.894v-6.1H6.844v6.17c0,1.508-.728,2.256-2.11,2.256S2.622,320,2.622,318.495v-6.17H.656v6.236c0,2.547,1.364,3.767,4,3.767m-1.8-20.781h1.22c2.492,0,4.029-1.312,4.029-3.422,0-2.04-1.384-3.094-3.969-3.094H.892v9.808H2.858Zm0-4.95H4.15c1.255,0,1.948.576,1.948,1.675a1.767,1.767,0,0,1-2.015,1.781H2.858Zm11.722,8.242h1.894v-7.025l-1.894.288Zm-3.261-4.892a4.219,4.219,0,0,1,2.133-.576v-1.62a5.758,5.758,0,0,0-1.623.325l-.6,1.085L11.1,297.84l-1.675.253v6.752h1.891Zm-8.3,31.922c0-1,.452-1.528,1.255-1.528a2.337,2.337,0,0,1,1.076.271v-1.617a3.5,3.5,0,0,0-1.094-.147,2.867,2.867,0,0,0-3.148,3.022v1H0v1.439H1.111v5.468H3.022v-5.468H4.806V332.87H3.022Zm6.044.6a3.584,3.584,0,0,0-3.741,3.871c0,2.2,1.425,3.551,3.741,3.551a3.552,3.552,0,0,0,3.7-3.868,3.372,3.372,0,0,0-3.7-3.554m0,5.923c-1.094,0-1.741-.889-1.741-2.2s.648-2.2,1.741-2.2,1.7.863,1.7,2.2-.63,2.2-1.7,2.2m9.411-25.447,1.514,1.514,1.517-1.514-1.514-1.514Zm-2.512,20.969-.135-1.35-1.7.259v6.864h1.931v-4.976a4.343,4.343,0,0,1,2.164-.593v-1.649a5.867,5.867,0,0,0-1.649.334Zm-.786-15.947v4.167h1.911V317.49a2.214,2.214,0,0,0-2.458-2.452,4.067,4.067,0,0,0-1.727.342l-.576.984-.127-1.238-1.675.253v6.752h1.894V317a2.259,2.259,0,0,1,1.427-.458,1.236,1.236,0,0,1,1.33,1.419m3.859,4.167h1.894v-7.025l-1.894.271Zm4.93-7.025-1.945.271,2.492,6.752h2.251l2.547-6.907H27.389l-1.638,5.065Zm66.811-11.362A1.237,1.237,0,0,0,92.18,305a3.216,3.216,0,0,0,.964-.164l.2-1.255a1.119,1.119,0,0,1-.345.052c-.325,0-.489-.178-.489-.527v-2.878c0-1.675-.947-2.492-2.9-2.492a7.548,7.548,0,0,0-2.492.435l-.253,1.531a5.836,5.836,0,0,1,2.256-.475c1.036,0,1.491.366,1.491,1.22v.437H89.158c-2.11,0-2.858,1.036-2.858,2.13,0,1.292.863,2.015,2.276,2.015a3.929,3.929,0,0,0,1.583-.325Zm-2.622-.964c0-.437.273-.786,1.091-.786h1.367v1.22a2.36,2.36,0,0,1-1.367.383c-.763,0-1.091-.308-1.091-.817m-38.081.837a4.435,4.435,0,0,1-2.366-.745l-.363,1.528a5.223,5.223,0,0,0,2.656.636c1.928,0,2.984-.863,2.984-2.164,0-1.073-.639-1.727-2.147-2.164l-.383-.109c-.892-.288-1.166-.472-1.166-.837s.437-.6,1.2-.6a5.417,5.417,0,0,1,2.015.4v-1.545a5.866,5.866,0,0,0-1.894-.288c-2.075,0-3.074.944-3.074,2.167,0,.964.509,1.583,2.038,2.038l.383.127c1,.308,1.272.509,1.272.909s-.363.636-1.151.636m.458,10.838,1.517-1.514-1.517-1.514-1.517,1.514Zm9.785-10.982a4.6,4.6,0,0,1-2.861-.93l-.417,1.712a5.682,5.682,0,0,0,3.2.78c2.274,0,3.678-1.108,3.678-2.878,0-1.545-.766-2.366-2.331-2.947l-.892-.328c-1.327-.492-1.62-.892-1.62-1.439,0-.656.622-1.042,1.784-1.042a5.246,5.246,0,0,1,2.4.576v-1.727a6.118,6.118,0,0,0-2.4-.417c-2.256,0-3.641,1.073-3.641,2.838,0,1.531.892,2.331,2.492,2.933l1,.363c1,.383,1.327.766,1.327,1.367,0,.708-.527,1.151-1.727,1.151m1.617,22.318,3.891-10.559H63.922l-1.638,5.08-1.776-5.2-1.945.271,2.449,6.754h.544l-1.439,3.094ZM23.113,300.672v4.167h1.925V300.2a2.216,2.216,0,0,0-2.455-2.458,4.007,4.007,0,0,0-1.727.345l-.576.984-.135-1.232-1.675.253v6.752h1.894v-5.137a2.285,2.285,0,0,1,1.419-.455,1.235,1.235,0,0,1,1.327,1.419M43.4,303.619a4.426,4.426,0,0,1-2.363-.745l-.365,1.528a5.232,5.232,0,0,0,2.656.636c1.928,0,2.984-.863,2.984-2.164,0-1.073-.636-1.727-2.147-2.164l-.383-.109c-.892-.288-1.166-.472-1.166-.837s.437-.6,1.2-.6a5.414,5.414,0,0,1,2,.4v-1.545a5.861,5.861,0,0,0-1.891-.288c-2.075,0-3.076.944-3.076,2.167,0,.964.509,1.583,2.038,2.038l.383.127c1,.308,1.275.509,1.275.909s-.365.636-1.151.636m-13.5,1.43a4.256,4.256,0,0,0,1.894-.4l.236-1.528a3.405,3.405,0,0,1-1.583.4,2.134,2.134,0,0,1-.109-4.256,2.714,2.714,0,0,1,1.6.509v-1.632a3.673,3.673,0,0,0-1.727-.383,3.583,3.583,0,0,0-3.741,3.877,3.155,3.155,0,0,0,3.454,3.419m-12.853-9.448-1.514-1.514-1.517,1.514,1.514,1.517Zm20.914,26.54h1.894V317.24a4.247,4.247,0,0,1,2.13-.576v-1.617a5.571,5.571,0,0,0-1.62.325l-.6,1.094-.13-1.33-1.675.259Zm14.582-5.468H53.7v3.419a1.962,1.962,0,0,0,2.236,2.239,4.128,4.128,0,0,0,1.566-.288l.256-1.473a2.783,2.783,0,0,1-1.151.271c-.636,0-.981-.271-.981-.964v-3.192h2.147v-1.439H55.624v-1.856l-1.911.288v1.58H52.585Zm11.037,15.791a3.585,3.585,0,0,0-3.741,3.871c0,2.2,1.439,3.551,3.741,3.551a3.556,3.556,0,0,0,3.7-3.868,3.382,3.382,0,0,0-3.7-3.554m0,5.923c-1.094,0-1.741-.889-1.741-2.2s.648-2.2,1.741-2.2,1.7.863,1.7,2.2-.627,2.2-1.7,2.2m5.232,1.3h1.925V328.657l-1.925.288ZM49.529,322.118h1.894v-7.011l-1.894.271ZM70.037,303.06a2.3,2.3,0,0,1-1.419.472c-.837,0-1.33-.472-1.33-1.439v-4.317l-1.908.271v4.533a2.2,2.2,0,0,0,2.455,2.438,4.644,4.644,0,0,0,1.727-.325l.576-1,.109,1.128h1.7V297.8l-1.894.271Zm37.8.035v-2.878c0-1.675-.944-2.492-2.892-2.492a7.55,7.55,0,0,0-2.492.435l-.256,1.531a5.871,5.871,0,0,1,2.256-.475c1.039,0,1.494.366,1.494,1.22v.437h-1.456c-2.112,0-2.858,1.036-2.858,2.13,0,1.292.863,2.015,2.276,2.015a3.928,3.928,0,0,0,1.583-.325l.619-.964a1.237,1.237,0,0,0,1.4,1.255,3.215,3.215,0,0,0,.964-.164l.2-1.255a1.111,1.111,0,0,1-.342.052c-.328,0-.495-.178-.495-.527m-1.891.109a2.349,2.349,0,0,1-1.364.383c-.766,0-1.094-.308-1.094-.817,0-.437.273-.786,1.094-.786h1.364ZM56.068,332.467a4.124,4.124,0,0,0-1.756.354l-.576,1-.13-1.258-1.7.259v6.864h1.925v-5.218A2.326,2.326,0,0,1,55.268,334c.863,0,1.35.481,1.35,1.439v4.242H58.56v-4.72a2.257,2.257,0,0,0-2.5-2.5m29.329,6.072H83.612c-.648,0-.927-.15-.927-.61a.941.941,0,0,1,.167-.5,4.459,4.459,0,0,0,1.151.13c1.85,0,3.036-1.091,3.036-2.607a1.917,1.917,0,0,0-.288-1.036L87.9,333.8v-1.37l-2.351.262a4.213,4.213,0,0,0-1.537-.262c-1.83,0-3.105,1.094-3.105,2.7a2.207,2.207,0,0,0,1.275,2.055,1.967,1.967,0,0,0-.961,1.554,1.347,1.347,0,0,0,.74,1.223c-1,.239-1.591.7-1.591,1.459,0,1.2,1.22,1.925,3.425,1.925,2.662,0,4.2-1.019,4.2-2.777,0-1.258-.794-2.035-2.59-2.035M84,333.814a1.177,1.177,0,1,1,0,2.351,1.152,1.152,0,0,1-1.258-1.151A1.168,1.168,0,0,1,84,333.828m.132,8.179c-1.223,0-1.758-.46-1.758-.979a.99.99,0,0,1,.535-.814h1.925c.8,0,1.258.242,1.258.74,0,.665-.722,1.053-1.96,1.053m8.346-4.2-1.822-5.3-1.98.288,2.5,6.867h.555L90.266,342.8l1.848.576,3.963-10.732H94.131ZM81.641,299.253c.783,0,1.238.472,1.238,1.419v4.167h1.914V300.2a2.186,2.186,0,0,0-2.369-2.458,3.88,3.88,0,0,0-1.692.345l-.576,1.036a2.1,2.1,0,0,0-2.2-1.381,3.8,3.8,0,0,0-1.64.345l-.561.984-.13-1.238-1.675.253v6.752h1.894v-5.131a2.075,2.075,0,0,1,1.33-.455c.783,0,1.238.472,1.238,1.419v4.167H80.32V300.2a3.33,3.33,0,0,0-.02-.458,1.943,1.943,0,0,1,1.347-.489m-5.595,33.177a3.583,3.583,0,0,0-3.741,3.868c0,2.2,1.439,3.554,3.741,3.554a3.554,3.554,0,0,0,3.7-3.871,3.373,3.373,0,0,0-3.7-3.551m0,5.923c-1.094,0-1.741-.889-1.741-2.2s.648-2.2,1.741-2.2,1.7.863,1.7,2.2-.63,2.2-1.7,2.2m-46.283-8.634H22.016v1.592h2.878v8.375h2.015V331.3h2.878Zm67.669-26.7-1.781-5.206-1.948.288,2.458,6.752h.547l-1.439,3.094,1.822.576,3.9-10.553H99.081ZM47.984,332.467a3.862,3.862,0,0,0-1.626.317l-.668,1.111.055-1.315v-3.923l-1.922.288v10.74h1.937v-5.163a2.351,2.351,0,0,1,1.5-.518c.835,0,1.3.481,1.3,1.439v4.242H50.5v-4.72a2.255,2.255,0,0,0-2.5-2.5m-8.74-29.389a4.533,4.533,0,0,1-2.112.472c-1.476,0-2.1-.636-2.222-1.781h4.533a7.842,7.842,0,0,0,.072-1.128,2.735,2.735,0,0,0-2.93-2.9,3.556,3.556,0,0,0-3.641,3.856c0,2.167,1.292,3.454,3.741,3.454A5.3,5.3,0,0,0,39,304.6Zm-2.8-3.951c.817,0,1.309.512,1.327,1.531h-2.82c.164-.984.694-1.531,1.494-1.531M33,332.467a3.61,3.61,0,0,0-3.7,3.923c0,2.2,1.312,3.5,3.81,3.5a5.385,5.385,0,0,0,2.348-.463l.242-1.537a4.568,4.568,0,0,1-2.144.481c-1.5,0-2.13-.648-2.259-1.813h4.6a8.056,8.056,0,0,0,.075-1.151A2.782,2.782,0,0,0,33,332.461m-1.663,2.961c.167-1,.7-1.554,1.517-1.554s1.332.518,1.35,1.554Zm2.1-20.39a3.554,3.554,0,0,0-3.638,3.856c0,2.164,1.292,3.453,3.741,3.453a5.313,5.313,0,0,0,2.3-.455l.233-1.511a4.51,4.51,0,0,1-2.11.472c-1.474,0-2.092-.636-2.219-1.781h4.533a8.248,8.248,0,0,0,.072-1.128,2.724,2.724,0,0,0-2.933-2.878m-1.638,2.91c.164-.981.691-1.528,1.494-1.528s1.309.509,1.327,1.528Zm13.6,2.967a4.461,4.461,0,0,1-2.366-.745l-.366,1.528a5.272,5.272,0,0,0,2.659.636c1.928,0,2.984-.863,2.984-2.164,0-1.073-.639-1.727-2.15-2.167l-.38-.109c-.892-.271-1.166-.475-1.166-.837s.437-.6,1.2-.6a5.439,5.439,0,0,1,2.015.4v-1.571a5.949,5.949,0,0,0-1.891-.27c-2.078,0-3.077.944-3.077,2.164,0,.964.509,1.583,2.038,2.038l.383.127c1,.311,1.275.509,1.275.912s-.365.636-1.151.636m-6.49,15.293a1.949,1.949,0,0,1,1.963-2.2,2.76,2.76,0,0,1,1.629.518v-1.666a3.778,3.778,0,0,0-1.761-.389,3.645,3.645,0,0,0-3.81,3.943,3.207,3.207,0,0,0,3.5,3.479,4.317,4.317,0,0,0,1.922-.409l.239-1.554a3.454,3.454,0,0,1-1.609.406,1.921,1.921,0,0,1-2.072-2.124m88.352-124.847,4.1,4.1,4.1-4.1-4.1-4.1Zm-101.335,0-4.061-4.1-4.1,4.1,4.1,4.1Zm60.436,60.767-4.1-4.1-4.1,4.1,4.1,4.1Zm55.5-64.868-4.1,4.1,4.1,4.1,4.1-4.1Zm-38.127,4.1,4.1,4.1,4.1-4.1-4.1-4.1Zm-67.306,0-4.1-4.1-4.11,4.1,4.1,4.1Zm77.773,0,4.1,4.1,4.1-4.1-4.1-4.1Z" transform="translate(0 -147.612)" fill="#20c4f4"/></svg>